HIERARCHY
ROOT hips
{
  OFFSET 0 10.6860622 2.3727825e-15
  CHANNELS 6 Xposition Yposition Zposition Yrotation Xrotation Zrotation
  JOINT leftUpperLeg
  {
    OFFSET 0.6642549969 -0.9402397400000004 0
    CHANNELS 3 Yrotation Xrotation Zrotation
    JOINT leftLowerLeg
    {
      OFFSET 0 -3.997221335632195 0
      CHANNELS 3 Yrotation Xrotation Zrotation
      JOINT leftFoot
      {
        OFFSET -0.13777839790000004 -4.6145792000000005 -0.22186036399999998
        CHANNELS 3 Yrotation Xrotation Zrotation
        JOINT leftToes
        {
          OFFSET -0.03777410834999995 -0.9130806927000008 0.85230013
          CHANNELS 3 Yrotation Xrotation Zrotation
          End Site
          {
            OFFSET -0.03777410834999995 -0.9130806927000008 0.85230013
          }
        }
      }
    }
  }
  JOINT rightUpperLeg
  {
    OFFSET -0.6642778626 -0.9402397400000004 0
    CHANNELS 3 Yrotation Xrotation Zrotation
    JOINT rightLowerLeg
    {
      OFFSET 0 -3.997221452859387 0
      CHANNELS 3 Yrotation Xrotation Zrotation
      JOINT rightFoot
      {
        OFFSET 0.1377926176 -4.6145792000000005 -0.22185782299999995
        CHANNELS 3 Yrotation Xrotation Zrotation
        JOINT rightToes
        {
          OFFSET 0.037780746850000047 -0.9130806927000008 0.85230167
          CHANNELS 3 Yrotation Xrotation Zrotation
          End Site
          {
            OFFSET 0.037780746850000047 -0.9130806927000008 0.85230167
          }
        }
      }
    }
  }
  JOINT spine
  {
    OFFSET 0 0.13988381660000015 0
    CHANNELS 3 Yrotation Xrotation Zrotation
    JOINT chest
    {
      OFFSET 0 0.6191039003973773 0
      CHANNELS 3 Yrotation Xrotation Zrotation
      JOINT upperChest
      {
        OFFSET 0 0.9855186130586943 0
        CHANNELS 3 Yrotation Xrotation Zrotation
        JOINT leftShoulder
        {
          OFFSET 0.1807663869 1.5087829790000005 0
          CHANNELS 3 Yrotation Xrotation Zrotation
          JOINT leftUpperArm
          {
            OFFSET 0.5985063006419806 0 0
            CHANNELS 3 Yrotation Xrotation Zrotation
            JOINT leftLowerArm
            {
              OFFSET 2.2993332369501065 0 0
              CHANNELS 3 Yrotation Xrotation Zrotation
              JOINT leftHand
              {
                OFFSET 2.395047042602395 0 0
                CHANNELS 3 Yrotation Xrotation Zrotation
                JOINT leftIndexProximal
                {
                  OFFSET 0.5766295810000004 0.04556643899499946 0.17265095988184
                  CHANNELS 3 Yrotation Xrotation Zrotation
                  JOINT leftIndexIntermediate
                  {
                    OFFSET 0.2957229000000008 -0.019352197700001517 -0.007932640616999987
                    CHANNELS 3 Yrotation Xrotation Zrotation
                    JOINT leftIndexDistal
                    {
                      OFFSET 0.19008243099999922 -0.012484908149998475 -0.002786250786000012
                      CHANNELS 3 Yrotation Xrotation Zrotation
                      End Site
                      {
                        OFFSET 0.19008243099999922 -0.012484908149998475 -0.002786250786000012
                      }
                    }
                  }
                }
                JOINT leftMiddleProximal
                {
                  OFFSET 0.5834975091000001 0.0524350405149987 0.02204081888183999
                  CHANNELS 3 Yrotation Xrotation Zrotation
                  JOINT leftMiddleIntermediate
                  {
                    OFFSET 0.33880573540000003 -0.019871473270000717 -0.00000971183179999946
                    CHANNELS 3 Yrotation Xrotation Zrotation
                    JOINT leftMiddleDistal
                    {
                      OFFSET 0.20676022730000088 -0.012221336379999448 0.0001471936708000235
                      CHANNELS 3 Yrotation Xrotation Zrotation
                      End Site
                      {
                        OFFSET 0.20676022730000088 -0.012221336379999448 0.0001471936708000235
                      }
                    }
                  }
                }
                JOINT leftLittleProximal
                {
                  OFFSET 0.5344154683999995 -0.012880921405001189 -0.24414037221816004
                  CHANNELS 3 Yrotation Xrotation Zrotation
                  JOINT leftLittleIntermediate
                  {
                    OFFSET 0.21758961730000093 -0.011650919939999227 0.011893592810000034
                    CHANNELS 3 Yrotation Xrotation Zrotation
                    JOINT leftLittleDistal
                    {
                      OFFSET 0.1475273964999999 -0.008152365682999818 0.006001092492999946
                      CHANNELS 3 Yrotation Xrotation Zrotation
                      End Site
                      {
                        OFFSET 0.1475273964999999 -0.008152365682999818 0.006001092492999946
                      }
                    }
                  }
                }
                JOINT leftRingProximal
                {
                  OFFSET 0.5799399463000003 0.026911854694997794 -0.12150566991816003
                  CHANNELS 3 Yrotation Xrotation Zrotation
                  JOINT leftRingIntermediate
                  {
                    OFFSET 0.26167887460000006 -0.013480186499999602 0.010996293000000053
                    CHANNELS 3 Yrotation Xrotation Zrotation
                    JOINT leftRingDistal
                    {
                      OFFSET 0.17667108799999987 -0.008990287899999228 0.0055541023999999065
                      CHANNELS 3 Yrotation Xrotation Zrotation
                      End Site
                      {
                        OFFSET 0.17667108799999987 -0.008990287899999228 0.0055541023999999065
                      }
                    }
                  }
                }
                JOINT leftThumbProximal
                {
                  OFFSET 0.11018806699999972 -0.09448718900500053 0.17047963138184
                  CHANNELS 3 Yrotation Xrotation Zrotation
                  JOINT leftThumbIntermediate
                  {
                    OFFSET 0.31062601459999983 -0.08126270900000132 0.15443142000000007
                    CHANNELS 3 Yrotation Xrotation Zrotation
                    JOINT leftThumbDistal
                    {
                      OFFSET 0.21627175790000086 -0.08833193599999878 0.018771167799999988
                      CHANNELS 3 Yrotation Xrotation Zrotation
                      End Site
                      {
                        OFFSET 0.21627175790000086 -0.08833193599999878 0.018771167799999988
                      }
                    }
                  }
                }
              }
            }
          }
        }
        JOINT neck
        {
          OFFSET 0 1.5463305265074576 0
          CHANNELS 3 Yrotation Xrotation Zrotation
          JOINT head
          {
            OFFSET 0 0.8456443600000344 0
            CHANNELS 3 Yrotation Xrotation Zrotation
            JOINT leftEye
            {
              OFFSET 0.30408573140000006 0.5104519199999995 0.1276382305
              CHANNELS 3 Yrotation Xrotation Zrotation
              End Site
              {
                OFFSET 0.30408573140000006 0.5104519199999995 0.1276382305
              }
            }
            JOINT rightEye
            {
              OFFSET -0.30409491089999996 0.5104519199999995 0.1276379445
              CHANNELS 3 Yrotation Xrotation Zrotation
              End Site
              {
                OFFSET -0.30409491089999996 0.5104519199999995 0.1276379445
              }
            }
            JOINT jaw
            {
              OFFSET -3.155239131000001e-7 -0.11984121820000082 0.60178107
              CHANNELS 3 Yrotation Xrotation Zrotation
              End Site
              {
                OFFSET -3.155239131000001e-7 -0.11984121820000082 0.60178107
              }
            }
          }
        }
        JOINT rightShoulder
        {
          OFFSET -0.1807303465 1.5087829790000005 0
          CHANNELS 3 Yrotation Xrotation Zrotation
          JOINT rightUpperArm
          {
            OFFSET -0.5985063796536958 0 0
            CHANNELS 3 Yrotation Xrotation Zrotation
            JOINT rightLowerArm
            {
              OFFSET -2.2993322059002854 0 0
              CHANNELS 3 Yrotation Xrotation Zrotation
              JOINT rightHand
              {
                OFFSET -2.395045314457259 0 0
                CHANNELS 3 Yrotation Xrotation Zrotation
                JOINT rightIndexProximal
                {
                  OFFSET -0.5764487688300002 0.0441371204405987 0.17361932004999997
                  CHANNELS 3 Yrotation Xrotation Zrotation
                  JOINT rightIndexIntermediate
                  {
                    OFFSET -0.29573011380000047 -0.01934826376999843 -0.007698921482999974
                    CHANNELS 3 Yrotation Xrotation Zrotation
                    JOINT rightIndexDistal
                    {
                      OFFSET -0.19008373999999884 -0.012503266380000655 -0.0026365778999999897
                      CHANNELS 3 Yrotation Xrotation Zrotation
                      End Site
                      {
                        OFFSET -0.19008373999999884 -0.012503266380000655 -0.0026365778999999897
                      }
                    }
                  }
                }
                JOINT rightMiddleProximal
                {
                  OFFSET -0.5834852037300005 0.05211639405060153 0.02307162440000001
                  CHANNELS 3 Yrotation Xrotation Zrotation
                  JOINT rightMiddleIntermediate
                  {
                    OFFSET -0.33880114510000003 -0.019952774050000954 0.0002455003561999819
                    CHANNELS 3 Yrotation Xrotation Zrotation
                    JOINT rightMiddleDistal
                    {
                      OFFSET -0.20675694929999955 -0.012273788999999091 0.00030209124000002766
                      CHANNELS 3 Yrotation Xrotation Zrotation
                      End Site
                      {
                        OFFSET -0.20675694929999955 -0.012273788999999091 0.00030209124000002766
                      }
                    }
                  }
                }
                JOINT rightLittleProximal
                {
                  OFFSET -0.5346811737299992 -0.011214256288399227 -0.24363941305000003
                  CHANNELS 3 Yrotation Xrotation Zrotation
                  JOINT rightLittleIntermediate
                  {
                    OFFSET -0.21757715980000092 -0.011771559690000988 0.01201554387
                    CHANNELS 3 Yrotation Xrotation Zrotation
                    JOINT rightLittleDistal
                    {
                      OFFSET -0.1475201849000004 -0.00822055339600003 0.006082065407000015
                      CHANNELS 3 Yrotation Xrotation Zrotation
                      End Site
                      {
                        OFFSET -0.1475201849000004 -0.00822055339600003 0.006082065407000015
                      }
                    }
                  }
                }
                JOINT rightRingProximal
                {
                  OFFSET -0.5800810755299999 0.027657985680600072 -0.12066365025000003
                  CHANNELS 3 Yrotation Xrotation Zrotation
                  JOINT rightRingIntermediate
                  {
                    OFFSET -0.26166445029999974 -0.013623118409999302 0.011164098990000045
                    CHANNELS 3 Yrotation Xrotation Zrotation
                    JOINT rightRingDistal
                    {
                      OFFSET -0.17666387530000027 -0.009072900100000503 0.005668185599999959
                      CHANNELS 3 Yrotation Xrotation Zrotation
                      End Site
                      {
                        OFFSET -0.17666387530000027 -0.009072900100000503 0.005668185599999959
                      }
                    }
                  }
                }
                JOINT rightThumbProximal
                {
                  OFFSET -0.10997596379000074 -0.09577489355940072 0.16989765924999997
                  CHANNELS 3 Yrotation Xrotation Zrotation
                  JOINT rightThumbIntermediate
                  {
                    OFFSET -0.31036620999999986 -0.08229339117999834 0.15440884469999996
                    CHANNELS 3 Yrotation Xrotation Zrotation
                    JOINT rightThumbDistal
                    {
                      OFFSET -0.21631306399999906 -0.08825326400000111 0.018656797720000014
                      CHANNELS 3 Yrotation Xrotation Zrotation
                      End Site
                      {
                        OFFSET -0.21631306399999906 -0.08825326400000111 0.018656797720000014
                      }
                    }
                  }
                }
              }
            }
          }
        }
      }
    }
  }
}
MOTION
Frames: 9
Frame Time: 0.03333333333333333
0 11.682712981546562 0 0 0 0 0 0 -5.826343164929014 -0.3712483961610101 -3.6333298826370974 5.838118207697276 0 0 0 0 0 0 0 0 5.826343164929014 0.3712483961610101 -3.6333298826370974 -5.838118207697276 0 0 0 0 0 0 0 -4.610651315171937 0 0 3.0831277533083026 0 0 0 0 0 1.5275236235667615 0 0 0 0 0 0 0 0 0 0 0 0 0 0 0 0 0 0 0 0 0 0 0 0 0 0 0 0 0 0 0 0 0 0 0 0 0 0 0 0 0 0 0 0 0 0 0 0 0 0 0 0 0 0 0 0 1.5275236235667615 0 0 0 0 0 0 0 0 0 0 0 0 0 0 1.5275236235667615 0 0 0 0 0 0 0 0 0 0 0 0 0 0 0 0 0 0 0 0 0 0 0 0 0 0 0 0 0 0 0 0 0 0 0 0 0 0 0 0 0 0 0 0 0 0 0 0 0 0 0 0 0 0 0
5.397374748987444 -10.240907284559874 0 0 -90 0 -12.900228242226605 -5.3372198352941576 44.53947410519151 -2.8168714636752696 38.90775501330084 -32.29923516206433 28.982307143945867 32.81774157638276 30.111640275869195 0 0 0 36.54174949983293 -27.45224688537341 -54.399846115201484 -139.35926085285726 81.61995042559636 -138.39167582284287 -1.0786178666280308 32.76159141053708 -27.481591217823315 0 0 0 -1.1379419697402313 51.207083718092 -2.025007486023746 -11.729378891907968 25.48985009383762 -8.018796900355756 0 0 0 -2.7631019743629066 4.053858632800584 -13.11025582843264 -3.8945647416726965 -54.66469981098113 -77.05061990494242 -7.184015954942124 17.351711543060578 -2.81847996175048 27.50864542199175 6.877194766604864 -3.1650441288595172 0 0 0 0 0 0 0 0 0 0 0 0 0 0 0 0 0 0 0 0 0 0 0 0 0 0 0 0 0 0 0 0 0 0 0 0 0 0 0 0 0 0 0 0 0 0 20.521502330973817 0 0 5.995041097125356 0 0 0 0 0 0 0 0 0 0 4.445651989338656 -8.122653892399555 -0.7607580562578439 38.63673743524397 -5.944207090514462 64.79605195711189 61.805401758587294 -42.24693127271586 38.85866480486387 -5.439942726433081 20.07540071197012 -38.54348017942167 0 0 0 0 0 0 0 0 0 0 0 0 0 0 0 0 0 0 0 0 0 0 0 0 0 0 0 0 0 0 0 0 0 0 0 0 0 0 0 0 0 0 0 0 0
5.397374748987444 -10.240907284559874 -0.011775979295825422 0 -90 0 -12.829344327734635 -5.286493169104213 44.42847191847377 -2.682508834898347 38.71541319448291 -32.08889671604748 29.01804666856628 32.942123891215 30.148237663469185 0 0 0 36.50618797946961 -27.44654748172163 -54.29522920244732 -139.35926085285726 81.61995042559636 -138.39167582284287 -1.0786178666280308 32.76159141053708 -27.48159301924201 0 0 0 -1.1498502839479117 51.385136364206 -2.038018200768021 -11.746769287102262 25.66793082142805 -8.048704308044975 0 0 0 -2.729229173842578 3.8107670554756212 -12.923171841032232 -3.897931204009131 -54.66957155235026 -77.13010031375748 -7.184015954942124 17.3517133320198 -2.81847996175048 27.427283038770153 6.792768687664203 -3.1574439943711896 0 0 0 0 0 0 0 0 0 0 0 0 0 0 0 0 0 0 0 0 0 0 0 0 0 0 0 0 0 0 0 0 0 0 0 0 0 0 0 0 0 0 0 0 0 0 20.271510276676242 0 0 5.495988384937514 0 0 0 0 0 0 0 0 0 0 4.445651989338656 -8.122653892399555 -0.7607580562578439 38.636739579089756 -5.944207090514462 64.79605195711189 62.23518822063862 -42.27547627578515 38.62073045790405 -4.751841671711049 20.59769667866445 -38.6004266522267 0 0 0 0 0 0 0 0 0 0 0 0 0 0 0 0 0 0 0 0 0 0 0 0 0 0 0 0 0 0 0 0 0 0 0 0 0 0 0 0 0 0 0 0 0
5.397374748987444 -10.240907284559874 -0.023551958591650844 0 -90 0 -12.758564360880587 -5.235629623941557 44.31754367457516 -2.5494096567615374 38.52268398881842 -31.87969878061296 29.053928056674014 33.06648173755501 30.184979560548346 0 0 0 36.470639431383 -27.440792575801776 -54.19062491670947 -139.35926085285726 81.61995042559636 -138.39167582284287 -1.0786178666280308 32.76159141053708 -27.48159301924201 0 0 0 -1.161870224134472 51.56318129982111 -2.0511391089541133 -11.764291525823594 25.84600282985093 -8.078717014643287 0 0 0 -2.696161037104072 3.5675668697087595 -12.736283814052506 -3.901286353723009 -54.674443878174955 -77.20959062974171 -7.184015954942124 17.35171512097904 -2.81847996175048 27.345922043264192 6.708353126068074 -3.1497250215395916 0 0 0 0 0 0 0 0 0 0 0 0 0 0 0 0 0 0 0 0 0 0 0 0 0 0 0 0 0 0 0 0 0 0 0 0 0 0 0 0 0 0 0 0 0 0 20.021516986917092 0 0 4.9969362042709475 0 0 0 0 0 0 0 0 0 0 4.445651989338656 -8.122655617250782 -0.7607580562578439 38.63674226110999 -5.944207519708974 64.79605040377506 62.66532286209814 -42.30270436195278 38.38240565355028 -4.0619023545153 21.120596576201606 -38.650843112684015 0 0 0 0 0 0 0 0 0 0 0 0 0 0 0 0 0 0 0 0 0 0 0 0 0 0 0 0 0 0 0 0 0 0 0 0 0 0 0 0 0 0 0 0 0
5.397374748987444 -10.240907284559874 -0.04710391718330169 0 -90 0 -12.617314420587528 -5.133482869345285 44.09589196170238 -2.2868985953756025 38.13601503182272 -31.464580558851296 29.12612659627713 33.31515456635645 30.258888748076487 0 0 0 36.3995729272616 -27.429104748820006 -53.98142798969208 -139.35926085285726 81.61995042559636 -138.39167582284287 -1.0786178666280308 32.76159141053708 -27.4815875423573 0 0 0 -1.1862535079473435 51.91933213144256 -2.077720961236756 -11.799731470439939 26.202171206362422 -8.139070234985251 0 0 0 -2.632413216883511 3.080681782741816 -12.362939445021206 -3.9079620354155185 -54.68420800704316 -77.36861507356168 -7.184015954942124 17.351711543060578 -2.81847996175048 27.18318154012513 6.539543347349599 -3.133928585488462 0 0 0 0 0 0 0 0 0 0 0 0 0 0 0 0 0 0 0 0 0 0 0 0 0 0 0 0 0 0 0 0 0 0 0 0 0 0 0 0 0 0 0 0 0 0 19.521418981913957 0 0 3.997917947505683 0 0 0 0 0 0 0 0 0 0 4.445651989338656 -8.122653892399555 -0.7607580562578439 38.63673743524397 -5.944207090514462 64.79605195711189 63.526911296459254 -42.353216915059576 37.904496836572 -2.6719581482543133 22.170928251058545 -38.732012200679904 0 0 0 0 0 0 0 0 0 0 0 0 0 0 0 0 0 0 0 0 0 0 0 0 0 0 0 0 0 0 0 0 0 0 0 0 0 0 0 0 0 0 0 0 0
5.397374748987444 -10.240907284559874 -0.05888003067526277 0 -90 0 -12.546839847718873 -5.082206503780675 43.98516239175636 -2.1574716289558076 37.94208598640942 -31.258646660600647 29.162458924752844 33.43947469371898 30.29608038323043 0 0 0 36.36406352394076 -27.423179541353615 -53.87684119382612 -139.35926085285726 81.61995042559636 -138.39167582284287 -1.078617359081144 32.76159141053708 -27.4815875423573 0 0 0 -1.198619714128999 52.09741418378865 -2.0911845518390053 -11.817647838033315 26.380255851699268 -8.169408805093052 0 0 0 -2.6017314745263613 2.8370154755958894 -12.17647625103794 -3.9112816529067493 -54.6890879981718 -77.44813615034877 -7.184015954942124 17.351711543060578 -2.81847996175048 27.101817579111362 6.455152623202369 -3.125850713218698 0 0 0 0 0 0 0 0 0 0 0 0 0 0 0 0 0 0 0 0 0 0 0 0 0 0 0 0 0 0 0 0 0 0 0 0 0 0 0 0 0 0 0 0 0 0 19.27132139993008 0 0 3.498028045276192 0 0 0 0 0 0 0 0 0 0 4.445651989338656 -8.122653892399555 -0.7607580562578439 38.63673743524397 -5.944207090514462 64.79605195711189 63.958290784249186 -42.3764797310893 37.66495052349302 -1.9719705571957735 22.697969449295954 -38.76252974124255 0 0 0 0 0 0 0 0 0 0 0 0 0 0 0 0 0 0 0 0 0 0 0 0 0 0 0 0 0 0 0 0 0 0 0 0 0 0 0 0 0 0 0 0 0
5.397374748987444 -10.240907284559874 -0.07065614416722385 0 -90 0 -12.476471369000723 -5.030794515746342 43.87450672797183 -2.0292675300749847 37.74779059672231 -31.05381128173769 29.198939429707842 33.56377238803735 30.333417286739557 0 0 0 36.32856724492481 -27.417195019792068 -53.77226852316736 -139.35926085285726 81.61995042559636 -138.39167582284287 -1.0786167246475353 32.76159141053708 -27.4815875423573 0 0 0 -1.211104051017526 52.275495599203964 -2.1047649342590566 -11.835698184416653 26.558331013484054 -8.199856018183374 0 0 0 -2.571850152412788 2.5932509470651266 -11.990182690958543 -3.914591083971491 -54.69396857616087 -77.5276670856739 -7.184015954942124 17.351711543060578 -2.81847996175048 27.020453756490905 6.3707733829961475 -3.117653608279195 0 0 0 0 0 0 0 0 0 0 0 0 0 0 0 0 0 0 0 0 0 0 0 0 0 0 0 0 0 0 0 0 0 0 0 0 0 0 0 0 0 0 0 0 0 0 19.021225632543093 0 0 2.9981380847262056 0 0 0 0 0 0 0 0 0 0 4.445651989338656 -8.122653892399555 -0.7607580562578439 38.63673743524397 -5.944207090514462 64.79605195711189 64.38995397231592 -42.39840541543901 37.42508651498398 -1.2695543289200155 23.225314559324172 -38.78615627028755 0 0 0 0 0 0 0 0 0 0 0 0 0 0 0 0 0 0 0 0 0 0 0 0 0 0 0 0 0 0 0 0 0 0 0 0 0 0 0 0 0 0 0 0 0
5.397374748987444 -10.240907284559874 -0.0942081027588747 0 -90 0 -12.336044045207455 -4.927555065924989 43.653412055895174 -1.7764477162139027 37.358077607788395 -30.64732259965254 29.272345981013455 33.81231887767211 30.408533881750852 0 0 0 36.25762041489747 -27.405048072778207 -53.56315180308139 -139.35926085285726 81.61995042559636 -138.39167582284287 -1.0786178666280308 32.76159141053708 -27.481591217823315 0 0 0 -1.2364360741791889 52.63168031273423 -2.1322862916926932 -11.872208106228017 26.914486423456918 -8.26109216504193 0 0 0 -2.514471796525105 2.1053262979956218 -11.617988654773487 -3.9212318323809905 -54.703719672775854 -77.68669370025634 -7.184015954942124 17.351711543060578 -2.81847996175048 26.857719251501013 6.2020443060050665 -3.1009007836606695 0 0 0 0 0 0 0 0 0 0 0 0 0 0 0 0 0 0 0 0 0 0 0 0 0 0 0 0 0 0 0 0 0 0 0 0 0 0 0 0 0 0 0 0 0 0 18.520957483551687 0 0 1.997749083741685 0 0 0 0 0 0 0 0 0 0 4.445651989338656 -8.122653892399555 -0.7607580562578439 38.63673743524397 -5.944207090514462 64.79605195711189 65.25430149659721 -42.438258387428675 36.944353636363246 0.14589684915753498 24.28263994362729 -38.81243729481194 0 0 0 0 0 0 0 0 0 0 0 0 0 0 0 0 0 0 0 0 0 0 0 0 0 0 0 0 0 0 0 0 0 0 0 0 0 0 0 0 0 0 0 0 0
5.397374748987444 -10.240907284559874 -0.10598408205470011 0 -90 0 -12.265987000747243 -4.875731441498751 43.54296209210548 -1.6518148169562712 37.162665647559145 -30.44565180578215 29.30927793383231 33.936564587575006 30.446319462874815 0 0 0 36.222161464908744 -27.398887590040925 -53.45859742108905 -139.3592455905859 81.61995042559636 -138.3916602624814 -1.0786178666280308 32.76159141053708 -27.481589343775976 0 0 0 -1.2492868295274449 52.809781608889445 -2.1462302879698925 -11.89066751973342 27.092564384903547 -8.291881375540259 0 0 0 -2.4869733731679515 1.8611850210340197 -11.432085170852174 -3.9245006030951712 -54.7086138337635 -77.76626496821525 -7.184015954942124 17.351711543060578 -2.81847996175048 26.776354830408224 6.117696240643344 -3.0923458999386804 0 0 0 0 0 0 0 0 0 0 0 0 0 0 0 0 0 0 0 0 0 0 0 0 0 0 0 0 0 0 0 0 0 0 0 0 0 0 0 0 0 0 0 0 0 0 18.27079200573408 0 0 1.4973254810775407 0 0 0 0 0 0 0 0 0 0 4.445651989338656 -8.122653892399555 -0.7607580562578439 38.63673743524397 -5.944207090514462 64.79605195711189 65.68691654814224 -42.45618313723662 36.70354415058253 0.858924198091191 24.812207708210487 -38.81486220437943 0 0 0 0 0 0 0 0 0 0 0 0 0 0 0 0 0 0 0 0 0 0 0 0 0 0 0 0 0 0 0 0 0 0 0 0 0 0 0 0 0 0 0 0 0
